<svg width="23" height="18" viewBox="0 0 23 18" fill="none" xmlns="http://www.w3.org/2000/svg">
<path fill-rule="evenodd" clip-rule="evenodd" d="M6.33086 12.9606L8.49586 10.2558C8.54687 10.1973 8.60251 10.1264 8.66422 10.0476C9.03545 9.57404 9.62652 8.82 10.7521 8.82H19.2179C19.5268 8.82 19.7773 8.56955 19.7773 8.2606V7.17907H21.4741C21.7831 7.17907 22.0335 6.92862 22.0335 6.61966V1.99522C22.0335 1.68627 21.7831 1.43581 21.4741 1.43581H19.7773V0.559409C19.7773 0.250456 19.5268 0 19.2179 0H10.7521C9.46906 0 7.82813 1.02558 5.98208 3.69209L1.77732 10.2647C1.637 10.484 1.70659 10.776 1.93077 10.9085L1.30935 11.9677C1.19884 12.1561 1.25961 12.3982 1.44595 12.5121L0.957703 13.3177C0.810761 13.5602 0.868427 13.8742 1.09192 14.0486L1.44548 14.3246L0.075517 16.6878C-0.0756347 16.9485 0.00694009 17.2821 0.262262 17.4422L0.423429 17.5433C0.688 17.7093 1.03719 17.6264 1.19906 17.3594L2.62017 15.0145L3.30025 15.3522C3.56722 15.4848 3.89124 15.3847 4.037 15.1247L4.46675 14.3581C4.64989 14.4701 4.88936 14.4071 4.9938 14.2196L5.62286 13.0902C5.85822 13.2292 6.16003 13.174 6.33086 12.9606ZM16.2015 2.42781C16.3536 2.18888 16.2832 1.87193 16.0442 1.71988C15.8053 1.56784 15.4883 1.63827 15.3363 1.8772L13.9005 4.13348C13.8 4.29138 13.7935 4.49148 13.8836 4.65554C13.9737 4.81961 14.1459 4.92157 14.3331 4.92157H15.5824L14.5337 6.36345C14.3672 6.59249 14.4178 6.9132 14.6468 7.07978C14.8759 7.24635 15.1966 7.19571 15.3632 6.96667L17.0041 4.71039C17.1175 4.55441 17.1339 4.34796 17.0463 4.17609C16.9588 4.00422 16.7823 3.89599 16.5894 3.89599H15.2672L16.2015 2.42781Z" fill="#616161"/>
</svg>
