<svg width="10" height="10" viewBox="0 0 10 10" fill="none" xmlns="http://www.w3.org/2000/svg">
<path d="M5.75618 5.01313H6.42541V6.14257L7.51402 6.70729L7.17941 7.22795L5.75618 6.49101V5.01313ZM7.54079 3.01059L1.29465 3.01059L1.29465 7.41619H3.37818C3.18634 7.05172 3.07926 6.6432 3.07926 6.21466C3.07926 5.47111 3.4083 4.75801 3.99399 4.23224C4.57968 3.70647 5.37404 3.4111 6.20233 3.4111C6.67972 3.4111 7.13479 3.50722 7.54079 3.67944V3.01059ZM1.29465 8.2172C1.058 8.2172 0.831034 8.13281 0.663694 7.98259C0.496354 7.83237 0.402344 7.62863 0.402344 7.41619L0.402344 1.80907C0.402344 1.3645 0.79942 1.00805 1.29465 1.00805H1.7408V0.207031L2.63311 0.207031V1.00805L6.20233 1.00805V0.207031L7.09464 0.207031V1.00805H7.54079C7.77745 1.00805 8.00441 1.09244 8.17175 1.24266C8.33909 1.39288 8.4331 1.59662 8.4331 1.80907V4.25217C8.98633 4.75681 9.3254 5.44969 9.3254 6.21466C9.3254 6.95821 8.99637 7.67131 8.41068 8.19708C7.82499 8.72285 7.03062 9.01822 6.20233 9.01822C5.35018 9.01822 4.57834 8.71383 4.01618 8.2172H1.29465ZM6.20233 4.27219C5.62845 4.27219 5.07806 4.47685 4.67227 4.84113C4.26647 5.20541 4.03849 5.69949 4.03849 6.21466C4.03849 7.28802 5.00664 8.15713 6.20233 8.15713C6.48649 8.15713 6.76787 8.10688 7.0304 8.00927C7.29293 7.91165 7.53147 7.76857 7.7324 7.58819C7.93333 7.40782 8.09272 7.19368 8.20146 6.95801C8.31021 6.72234 8.36618 6.46975 8.36618 6.21466C8.36618 5.1413 7.39802 4.27219 6.20233 4.27219Z" fill="#616161"/>
</svg>
