<svg width="16" height="16" viewBox="0 0 16 16" fill="none" xmlns="http://www.w3.org/2000/svg">
<g clip-path="url(#clip0_10528_12008)">
<path d="M12.8685 11.7427C12.2924 12.5 11.5492 13.1142 10.6969 13.5372C9.8445 13.9603 8.90597 14.1809 7.95439 14.1818C7.0028 14.1827 6.06385 13.9639 5.21068 13.5425C4.3575 13.1211 3.61313 12.5084 3.03556 11.7521" stroke="black" stroke-linecap="round" stroke-linejoin="round"/>
<path d="M3.00511 4.28801C3.5765 3.52707 4.31584 2.90831 5.16555 2.47994C6.01526 2.05156 6.95239 1.82513 7.90395 1.81828C8.85551 1.81143 9.79581 2.02434 10.6516 2.44044C11.5074 2.85654 12.2556 3.46459 12.8378 4.21723" stroke="black" stroke-linecap="round" stroke-linejoin="round"/>
<rect x="0.145508" y="6.01099" width="15.71" height="3.87649" rx="1.02013" stroke="black"/>
<mask id="path-4-inside-1_10528_12008" fill="white">
<path d="M7.84857 7.14057C7.87232 6.96369 8.12814 6.96369 8.15189 7.14057L8.22307 7.67073C8.23082 7.72841 8.28517 7.76794 8.34243 7.75752L8.86208 7.66302C9.03838 7.63096 9.11668 7.87599 8.95445 7.9521L8.48243 8.17356C8.42904 8.19861 8.40795 8.26359 8.43645 8.31522L8.69045 8.77535C8.77683 8.93184 8.57062 9.08417 8.44643 8.95561L8.0736 8.56969C8.0335 8.52818 7.96697 8.52818 7.92686 8.56969L7.55404 8.95561C7.42984 9.08417 7.22364 8.93184 7.31002 8.77535L7.56401 8.31522C7.59251 8.26359 7.57143 8.19861 7.51803 8.17356L7.04601 7.9521C6.88379 7.87599 6.96208 7.63096 7.13839 7.66302L7.65803 7.75752C7.71529 7.76794 7.76965 7.72841 7.77739 7.67073L7.84857 7.14057Z"/>
</mask>
<path d="M7.65803 7.75752L7.47911 8.74139L7.65803 7.75752ZM7.77739 7.67073L8.7685 7.8038L7.77739 7.67073ZM7.56401 8.31522L8.43949 8.79848L7.56401 8.31522ZM7.51803 8.17356L7.94279 7.26826L7.51803 8.17356ZM7.55404 8.95561L6.83484 8.26081L7.55404 8.95561ZM7.31002 8.77535L8.18549 9.25861L7.31002 8.77535ZM8.0736 8.56969L7.3544 9.2645L8.0736 8.56969ZM7.92686 8.56969L7.20766 7.87489L7.92686 8.56969ZM8.44643 8.95561L9.16563 8.26081L8.44643 8.95561ZM8.48243 8.17356L8.90719 9.07887L8.48243 8.17356ZM8.43645 8.31522L7.56098 8.79848L8.43645 8.31522ZM8.86208 7.66302L8.68315 6.67916L8.86208 7.66302ZM8.22307 7.67073L9.21418 7.53766L8.22307 7.67073ZM8.34243 7.75752L8.16351 6.77366L8.34243 7.75752ZM8.15189 7.14057L9.143 7.0075L8.15189 7.14057ZM7.84857 7.14057L6.85747 7.0075L7.84857 7.14057ZM7.16078 7.27363L7.23196 7.8038L9.21418 7.53766L9.143 7.0075L7.16078 7.27363ZM8.52135 8.74139L9.041 8.64688L8.68315 6.67916L8.16351 6.77366L8.52135 8.74139ZM8.52969 7.04679L8.05767 7.26826L8.90719 9.07887L9.3792 8.85741L8.52969 7.04679ZM7.56098 8.79848L7.81497 9.25861L9.56592 8.29208L9.31192 7.83195L7.56098 8.79848ZM9.16563 8.26081L8.7928 7.87489L7.3544 9.2645L7.72723 9.65042L9.16563 8.26081ZM7.20766 7.87489L6.83484 8.26081L8.27324 9.65042L8.64606 9.2645L7.20766 7.87489ZM8.18549 9.25861L8.43949 8.79848L6.68854 7.83195L6.43455 8.29208L8.18549 9.25861ZM7.94279 7.26826L7.47077 7.04679L6.62126 8.85741L7.09328 9.07887L7.94279 7.26826ZM6.95947 8.64688L7.47911 8.74139L7.83696 6.77366L7.31731 6.67916L6.95947 8.64688ZM8.7685 7.8038L8.83968 7.27363L6.85747 7.0075L6.78629 7.53766L8.7685 7.8038ZM7.47911 8.74139C8.09767 8.85387 8.68484 8.42691 8.7685 7.8038L6.78629 7.53766C6.85446 7.02991 7.33292 6.682 7.83696 6.77366L7.47911 8.74139ZM7.47077 7.04679C8.36873 7.4681 7.93533 8.82435 6.95947 8.64688L7.31731 6.67916C5.98884 6.43757 5.39884 8.28387 6.62126 8.85741L7.47077 7.04679ZM8.43949 8.79848C8.74737 8.24072 8.51955 7.53886 7.94279 7.26826L7.09328 9.07887C6.6233 8.85837 6.43766 8.28645 6.68854 7.83195L8.43949 8.79848ZM6.83484 8.26081C7.52227 7.54924 8.66363 8.39242 8.18549 9.25861L6.43455 8.29208C5.78364 9.47125 7.33741 10.6191 8.27324 9.65042L6.83484 8.26081ZM8.7928 7.87489C8.35957 7.42645 7.64089 7.42645 7.20766 7.87489L8.64606 9.2645C8.29304 9.62992 7.70742 9.62991 7.3544 9.2645L8.7928 7.87489ZM7.81497 9.25861C7.33682 8.39241 8.47821 7.54925 9.16563 8.26081L7.72723 9.65042C8.66304 10.6191 10.2168 9.47126 9.56592 8.29208L7.81497 9.25861ZM8.05767 7.26826C7.48091 7.53886 7.25309 8.24073 7.56098 8.79848L9.31192 7.83195C9.56281 8.28645 9.37717 8.85837 8.90719 9.07887L8.05767 7.26826ZM9.041 8.64688C8.06512 8.82435 7.63175 7.46809 8.52969 7.04679L9.3792 8.85741C10.6016 8.28388 10.0116 6.43756 8.68315 6.67916L9.041 8.64688ZM7.23196 7.8038C7.31562 8.42691 7.90279 8.85387 8.52135 8.74139L8.16351 6.77366C8.66755 6.682 9.14601 7.02991 9.21418 7.53766L7.23196 7.8038ZM9.143 7.0075C8.96406 5.67471 7.03641 5.67472 6.85747 7.0075L8.83968 7.27363C8.70823 8.25266 7.29223 8.25267 7.16078 7.27363L9.143 7.0075Z" fill="black" mask="url(#path-4-inside-1_10528_12008)"/>
<mask id="path-6-inside-2_10528_12008" fill="white">
<path d="M11.623 7.14057C11.6467 6.96369 11.9026 6.96369 11.9263 7.14057L11.9975 7.67073C12.0052 7.72841 12.0596 7.76794 12.1168 7.75752L12.6365 7.66302C12.8128 7.63096 12.8911 7.87599 12.7289 7.9521L12.2568 8.17356C12.2035 8.19861 12.1824 8.26359 12.2109 8.31522L12.4649 8.77535C12.5512 8.93184 12.345 9.08417 12.2208 8.95561L11.848 8.56969C11.8079 8.52818 11.7414 8.52818 11.7013 8.56969L11.3284 8.95561C11.2043 9.08417 10.9981 8.93184 11.0844 8.77535L11.3384 8.31522C11.3669 8.26359 11.3458 8.19861 11.2924 8.17356L10.8204 7.9521C10.6582 7.87599 10.7365 7.63096 10.9128 7.66302L11.4324 7.75752C11.4897 7.76794 11.5441 7.72841 11.5518 7.67073L11.623 7.14057Z"/>
</mask>
<path d="M11.4324 7.75752L11.2535 8.74139L11.4324 7.75752ZM11.5518 7.67073L12.5429 7.8038L11.5518 7.67073ZM11.3384 8.31522L12.2139 8.79848L11.3384 8.31522ZM11.2924 8.17356L11.7172 7.26826L11.2924 8.17356ZM11.3284 8.95561L10.6092 8.26081L11.3284 8.95561ZM11.0844 8.77535L11.9599 9.25861L11.0844 8.77535ZM11.848 8.56969L11.1288 9.2645L11.848 8.56969ZM11.7013 8.56969L10.9821 7.87489L11.7013 8.56969ZM12.2208 8.95561L12.94 8.26081L12.2208 8.95561ZM12.2568 8.17356L12.6816 9.07887L12.2568 8.17356ZM12.2109 8.31522L11.3354 8.79848L12.2109 8.31522ZM12.6365 7.66302L12.4576 6.67916L12.6365 7.66302ZM11.9975 7.67073L12.9886 7.53766L11.9975 7.67073ZM12.1168 7.75752L11.9379 6.77366L12.1168 7.75752ZM11.9263 7.14057L12.9174 7.0075L11.9263 7.14057ZM11.623 7.14057L10.6319 7.0075L11.623 7.14057ZM10.9352 7.27363L11.0064 7.8038L12.9886 7.53766L12.9174 7.0075L10.9352 7.27363ZM12.2958 8.74139L12.8154 8.64688L12.4576 6.67916L11.9379 6.77366L12.2958 8.74139ZM12.3041 7.04679L11.8321 7.26826L12.6816 9.07887L13.1536 8.85741L12.3041 7.04679ZM11.3354 8.79848L11.5894 9.25861L13.3403 8.29208L13.0863 7.83195L11.3354 8.79848ZM12.94 8.26081L12.5672 7.87489L11.1288 9.2645L11.5016 9.65042L12.94 8.26081ZM10.9821 7.87489L10.6092 8.26081L12.0477 9.65042L12.4205 9.2645L10.9821 7.87489ZM11.9599 9.25861L12.2139 8.79848L10.463 7.83195L10.209 8.29208L11.9599 9.25861ZM11.7172 7.26826L11.2452 7.04679L10.3957 8.85741L10.8677 9.07887L11.7172 7.26826ZM10.7339 8.64688L11.2535 8.74139L11.6114 6.77366L11.0917 6.67916L10.7339 8.64688ZM12.5429 7.8038L12.6141 7.27363L10.6319 7.0075L10.5607 7.53766L12.5429 7.8038ZM11.2535 8.74139C11.8721 8.85387 12.4593 8.42691 12.5429 7.8038L10.5607 7.53766C10.6289 7.02991 11.1073 6.682 11.6114 6.77366L11.2535 8.74139ZM11.2452 7.04679C12.1431 7.4681 11.7097 8.82435 10.7339 8.64688L11.0917 6.67916C9.76325 6.43757 9.17326 8.28387 10.3957 8.85741L11.2452 7.04679ZM12.2139 8.79848C12.5218 8.24072 12.294 7.53886 11.7172 7.26826L10.8677 9.07887C10.3977 8.85837 10.2121 8.28645 10.463 7.83195L12.2139 8.79848ZM10.6092 8.26081C11.2967 7.54924 12.438 8.39242 11.9599 9.25861L10.209 8.29208C9.55805 9.47125 11.1118 10.6191 12.0477 9.65042L10.6092 8.26081ZM12.5672 7.87489C12.134 7.42645 11.4153 7.42645 10.9821 7.87489L12.4205 9.2645C12.0675 9.62992 11.4818 9.62991 11.1288 9.2645L12.5672 7.87489ZM11.5894 9.25861C11.1112 8.39241 12.2526 7.54925 12.94 8.26081L11.5016 9.65042C12.4375 10.6191 13.9912 9.47126 13.3403 8.29208L11.5894 9.25861ZM11.8321 7.26826C11.2553 7.53886 11.0275 8.24073 11.3354 8.79848L13.0863 7.83195C13.3372 8.28645 13.1516 8.85837 12.6816 9.07887L11.8321 7.26826ZM12.8154 8.64688C11.8395 8.82435 11.4062 7.46809 12.3041 7.04679L13.1536 8.85741C14.376 8.28388 13.7861 6.43756 12.4576 6.67916L12.8154 8.64688ZM11.0064 7.8038C11.09 8.42691 11.6772 8.85387 12.2958 8.74139L11.9379 6.77366C12.442 6.682 12.9204 7.02991 12.9886 7.53766L11.0064 7.8038ZM12.9174 7.0075C12.7385 5.67471 10.8108 5.67472 10.6319 7.0075L12.6141 7.27363C12.4826 8.25266 11.0666 8.25267 10.9352 7.27363L12.9174 7.0075Z" fill="black" mask="url(#path-6-inside-2_10528_12008)"/>
<mask id="path-8-inside-3_10528_12008" fill="white">
<path d="M4.07416 7.14057C4.09791 6.96369 4.35373 6.96369 4.37748 7.14057L4.44866 7.67073C4.4564 7.72841 4.51076 7.76794 4.56802 7.75752L5.08766 7.66302C5.26397 7.63096 5.34226 7.87599 5.18004 7.9521L4.70802 8.17356C4.65462 8.19861 4.63354 8.26359 4.66204 8.31522L4.91603 8.77535C5.00241 8.93184 4.79621 9.08417 4.67201 8.95561L4.29919 8.56969C4.25908 8.52818 4.19255 8.52818 4.15245 8.56969L3.77962 8.95561C3.65543 9.08417 3.44922 8.93184 3.53561 8.77535L3.7896 8.31522C3.8181 8.26359 3.79701 8.19861 3.74362 8.17356L3.2716 7.9521C3.10937 7.87599 3.18767 7.63096 3.36397 7.66302L3.88362 7.75752C3.94088 7.76794 3.99523 7.72841 4.00298 7.67073L4.07416 7.14057Z"/>
</mask>
<path d="M3.88362 7.75752L3.7047 8.74139L3.88362 7.75752ZM4.00298 7.67073L4.99409 7.8038L4.00298 7.67073ZM3.7896 8.31522L4.66507 8.79848L3.7896 8.31522ZM3.74362 8.17356L4.16838 7.26826L3.74362 8.17356ZM3.77962 8.95561L3.06042 8.26081L3.77962 8.95561ZM3.53561 8.77535L4.41108 9.25861L3.53561 8.77535ZM4.29919 8.56969L3.57999 9.2645L4.29919 8.56969ZM4.15245 8.56969L3.43325 7.87489L4.15245 8.56969ZM4.67201 8.95561L5.39121 8.26081L4.67201 8.95561ZM4.70802 8.17356L5.13277 9.07887L4.70802 8.17356ZM4.66204 8.31522L3.78656 8.79848L4.66204 8.31522ZM5.08766 7.66302L4.90874 6.67916L5.08766 7.66302ZM4.44866 7.67073L5.43976 7.53766L4.44866 7.67073ZM4.56802 7.75752L4.38909 6.77366L4.56802 7.75752ZM4.37748 7.14057L5.36858 7.0075L4.37748 7.14057ZM4.07416 7.14057L3.08305 7.0075L4.07416 7.14057ZM3.38637 7.27363L3.45755 7.8038L5.43976 7.53766L5.36858 7.0075L3.38637 7.27363ZM4.74694 8.74139L5.26658 8.64688L4.90874 6.67916L4.38909 6.77366L4.74694 8.74139ZM4.75528 7.04679L4.28326 7.26826L5.13277 9.07887L5.60479 8.85741L4.75528 7.04679ZM3.78656 8.79848L4.04056 9.25861L5.7915 8.29208L5.53751 7.83195L3.78656 8.79848ZM5.39121 8.26081L5.01839 7.87489L3.57999 9.2645L3.95281 9.65042L5.39121 8.26081ZM3.43325 7.87489L3.06042 8.26081L4.49882 9.65042L4.87165 9.2645L3.43325 7.87489ZM4.41108 9.25861L4.66507 8.79848L2.91413 7.83195L2.66013 8.29208L4.41108 9.25861ZM4.16838 7.26826L3.69636 7.04679L2.84685 8.85741L3.31887 9.07887L4.16838 7.26826ZM3.18505 8.64688L3.7047 8.74139L4.06254 6.77366L3.5429 6.67916L3.18505 8.64688ZM4.99409 7.8038L5.06527 7.27363L3.08305 7.0075L3.01187 7.53766L4.99409 7.8038ZM3.7047 8.74139C4.32326 8.85387 4.91043 8.42691 4.99409 7.8038L3.01187 7.53766C3.08004 7.02991 3.5585 6.682 4.06254 6.77366L3.7047 8.74139ZM3.69636 7.04679C4.59431 7.4681 4.16092 8.82435 3.18505 8.64688L3.5429 6.67916C2.21442 6.43757 1.62443 8.28387 2.84685 8.85741L3.69636 7.04679ZM4.66507 8.79848C4.97296 8.24072 4.74514 7.53886 4.16838 7.26826L3.31887 9.07887C2.84888 8.85837 2.66324 8.28645 2.91413 7.83195L4.66507 8.79848ZM3.06042 8.26081C3.74786 7.54924 4.88922 8.39242 4.41108 9.25861L2.66013 8.29208C2.00922 9.47125 3.563 10.6191 4.49882 9.65042L3.06042 8.26081ZM5.01839 7.87489C4.58516 7.42645 3.86648 7.42645 3.43325 7.87489L4.87165 9.2645C4.51863 9.62992 3.93301 9.62991 3.57999 9.2645L5.01839 7.87489ZM4.04056 9.25861C3.56241 8.39241 4.70379 7.54925 5.39121 8.26081L3.95281 9.65042C4.88863 10.6191 6.44242 9.47126 5.7915 8.29208L4.04056 9.25861ZM4.28326 7.26826C3.7065 7.53886 3.47868 8.24073 3.78656 8.79848L5.53751 7.83195C5.78839 8.28645 5.60275 8.85837 5.13277 9.07887L4.28326 7.26826ZM5.26658 8.64688C4.29071 8.82435 3.85733 7.46809 4.75528 7.04679L5.60479 8.85741C6.82719 8.28388 6.23723 6.43756 4.90874 6.67916L5.26658 8.64688ZM3.45755 7.8038C3.54121 8.42691 4.12838 8.85387 4.74694 8.74139L4.38909 6.77366C4.89313 6.682 5.37159 7.02991 5.43976 7.53766L3.45755 7.8038ZM5.36858 7.0075C5.18964 5.67471 3.26199 5.67472 3.08305 7.0075L5.06527 7.27363C4.93382 8.25266 3.51782 8.25267 3.38637 7.27363L5.36858 7.0075Z" fill="black" mask="url(#path-8-inside-3_10528_12008)"/>
<path d="M4.42871 11.2019L2.43146 11.3068L2.53638 13.3041" stroke="black" stroke-linecap="round" stroke-linejoin="round"/>
<path d="M11.2109 4.61157L13.2105 4.57158L13.1705 2.57198" stroke="black" stroke-linecap="round" stroke-linejoin="round"/>
</g>
<defs>
<clipPath id="clip0_10528_12008">
<rect width="16" height="16" fill="white"/>
</clipPath>
</defs>
</svg>
