<svg width="9" height="10" viewBox="0 0 9 10" fill="none" xmlns="http://www.w3.org/2000/svg">
<path d="M0.0686391 4.36367C0.372361 3.9611 0.777642 3.64418 1.24408 3.44448C0.988882 3.21395 0.810194 2.91265 0.73145 2.58009C0.652706 2.24754 0.677581 1.89924 0.802813 1.58089C0.928046 1.26253 1.14779 0.988978 1.43323 0.796094C1.71867 0.603209 2.05648 0.5 2.40236 0.5C2.74825 0.5 3.08606 0.603209 3.3715 0.796094C3.65694 0.988978 3.87668 1.26253 4.00191 1.58089C4.12714 1.89924 4.15202 2.24754 4.07328 2.58009C3.99453 2.91265 3.81584 3.21395 3.56064 3.44448C3.89676 3.5888 4.20238 3.79429 4.46153 4.05021C4.72068 3.79429 5.0263 3.5888 5.36242 3.44448C5.10722 3.21395 4.92853 2.91265 4.84979 2.58009C4.77104 2.24754 4.79592 1.89924 4.92115 1.58089C5.04638 1.26253 5.26612 0.988978 5.55156 0.796094C5.837 0.603209 6.17481 0.5 6.5207 0.5C6.86658 0.5 7.20439 0.603209 7.48983 0.796094C7.77527 0.988978 7.99501 1.26253 8.12025 1.58089C8.24548 1.89924 8.27035 2.24754 8.19161 2.58009C8.11287 2.91265 7.93418 3.21395 7.67898 3.44448C8.14542 3.64418 8.5507 3.9611 8.85442 4.36367C8.88146 4.39927 8.90114 4.43978 8.91232 4.48289C8.92351 4.526 8.92598 4.57086 8.91961 4.61492C8.91324 4.65897 8.89814 4.70135 8.87518 4.73965C8.85221 4.77794 8.82184 4.81139 8.78578 4.83809C8.71257 4.89093 8.62135 4.91342 8.53158 4.90076C8.44181 4.88809 8.36061 4.84128 8.30531 4.77032C8.09752 4.49675 7.82808 4.27472 7.51833 4.12179C7.20857 3.96887 6.86701 3.88925 6.5207 3.88925C6.17438 3.88925 5.83282 3.96887 5.52307 4.12179C5.21332 4.27472 4.94387 4.49675 4.73609 4.77032L4.71035 4.79573H4.70606L4.68461 4.81691L4.67174 4.82538L4.67048 4.82838L4.66745 4.82962L4.65458 4.83809L4.64171 4.84656L4.62026 4.85927H4.61168L4.53875 4.88468H4.39718L4.36286 4.87621H4.34999L4.31138 4.85927L4.29851 4.8508C4.2847 4.84382 4.27174 4.83529 4.2599 4.82538H4.25561L4.24274 4.81267H4.23416C4.22558 4.8042 4.217 4.79997 4.21271 4.79149H4.20842L4.18268 4.76184C3.97448 4.48933 3.70498 4.26833 3.39546 4.11628C3.08594 3.96424 2.74486 3.8853 2.39915 3.88571C2.05344 3.88613 1.71255 3.96587 1.4034 4.11865C1.09425 4.27143 0.825288 4.49307 0.617751 4.76608C0.586236 4.80895 0.544982 4.84392 0.497301 4.8682C0.44962 4.89247 0.396839 4.90537 0.343195 4.90586C0.268784 4.90682 0.196226 4.88294 0.137278 4.83809C0.101223 4.81139 0.070847 4.77794 0.0478846 4.73965C0.0249223 4.70135 0.00982316 4.65897 0.00344945 4.61492C-0.00292427 4.57086 -0.000447835 4.526 0.0107374 4.48289C0.0219227 4.43978 0.0415977 4.39927 0.0686391 4.36367ZM7.67898 7.84981C7.93418 7.61928 8.11287 7.31798 8.19161 6.98542C8.27035 6.65286 8.24548 6.30457 8.12025 5.98621C7.99501 5.66786 7.77527 5.3943 7.48983 5.20142C7.20439 5.00853 6.86658 4.90532 6.5207 4.90532C6.17481 4.90532 5.837 5.00853 5.55156 5.20142C5.26612 5.3943 5.04638 5.66786 4.92115 5.98621C4.79592 6.30457 4.77104 6.65286 4.84979 6.98542C4.92853 7.31798 5.10722 7.61928 5.36242 7.84981C5.0263 7.99413 4.72068 8.19962 4.46153 8.45554C4.20238 8.19962 3.89676 7.99413 3.56064 7.84981C3.81584 7.61928 3.99453 7.31798 4.07328 6.98542C4.15202 6.65286 4.12714 6.30457 4.00191 5.98621C3.87668 5.66786 3.65694 5.3943 3.3715 5.20142C3.08606 5.00853 2.74825 4.90532 2.40236 4.90532C2.05648 4.90532 1.71867 5.00853 1.43323 5.20142C1.14779 5.3943 0.928046 5.66786 0.802813 5.98621C0.677581 6.30457 0.652706 6.65286 0.73145 6.98542C0.810194 7.31798 0.988882 7.61928 1.24408 7.84981C0.777642 8.0495 0.372361 8.36643 0.0686391 8.769C0.0303979 8.81934 0.0071107 8.87921 0.00138691 8.94188C-0.00433688 9.00456 0.00772883 9.06758 0.0362321 9.12387C0.0647354 9.18015 0.10855 9.22749 0.162767 9.26058C0.216983 9.29366 0.279459 9.31119 0.343195 9.31119H8.57987C8.6436 9.31119 8.70608 9.29366 8.76029 9.26058C8.81451 9.22749 8.85833 9.18015 8.88683 9.12387C8.91533 9.06758 8.9274 9.00456 8.92167 8.94188C8.91595 8.87921 8.89266 8.81934 8.85442 8.769C8.5507 8.36643 8.14542 8.0495 7.67898 7.84981Z" fill="#616161"/>
</svg>
